<svg width="21" height="22" viewBox="0 0 21 22" fill="none" xmlns="http://www.w3.org/2000/svg">
<g clip-path="url(#clip0_2_131)">
<path d="M10.5003 0.5C7.66451 0.5 5.35742 2.80709 5.35742 5.64287C5.35742 8.47865 7.66451 10.7857 10.5003 10.7857C13.3361 10.7857 15.6432 8.47861 15.6432 5.64283C15.6432 2.80705 13.3361 0.5 10.5003 0.5ZM10.5003 9.50002C8.37347 9.50002 6.64314 7.76969 6.64314 5.64287C6.64314 3.51604 8.37347 1.78572 10.5003 1.78572C12.6271 1.78572 14.3574 3.51604 14.3574 5.64287C14.3574 7.76969 12.6271 9.50002 10.5003 9.50002Z" fill="#29282C"/>
<path d="M10.4996 12.0713C5.65514 12.0713 1.71387 16.0126 1.71387 20.857C1.71387 21.2121 2.00169 21.4999 2.35675 21.4999H18.6425C18.9975 21.4999 19.2853 21.2121 19.2853 20.857C19.2853 16.0126 15.344 12.0713 10.4996 12.0713ZM3.02686 20.2142C3.35404 16.3785 6.58062 13.357 10.4996 13.357C14.4185 13.357 17.6451 16.3785 17.9723 20.2142H3.02686Z" fill="#29282C"/>
</g>
<defs>
<clipPath id="clip0_2_131">
<rect width="21" height="21" fill="white" transform="translate(0 0.5)"/>
</clipPath>
</defs>
</svg>
