<svg width="18" height="18" viewBox="0 0 18 18" fill="none" xmlns="http://www.w3.org/2000/svg">
<g clip-path="url(#clip0_2_111)">
<path d="M17.4708 4.12863C17.1331 3.79192 16.6764 3.60193 16.1995 3.59988H3.59952V1.79988C3.59952 1.32249 3.40988 0.864656 3.07232 0.527091C2.73475 0.189525 2.27691 -0.000117131 1.79952 -0.000117131H0.601399C0.517851 -0.00822244 0.433531 0.00123773 0.353857 0.0276557C0.274182 0.0540736 0.200915 0.0968651 0.13876 0.153281C0.0766063 0.209697 0.02694 0.278491 -0.00704795 0.355242C-0.0410358 0.431993 -0.0585937 0.515005 -0.0585938 0.598945C-0.0585937 0.682885 -0.0410358 0.765897 -0.00704795 0.842649C0.02694 0.9194 0.0766063 0.988193 0.13876 1.04461C0.200915 1.10103 0.274182 1.14382 0.353857 1.17024C0.433531 1.19665 0.517851 1.20611 0.601399 1.19801H1.79952C1.95915 1.19801 2.11224 1.26142 2.22511 1.37429C2.33799 1.48717 2.4014 1.64026 2.4014 1.79988V8.99988C2.40066 9.55189 2.50884 10.0986 2.71974 10.6087C2.93064 11.1189 3.24012 11.5824 3.63045 11.9727C4.02078 12.363 4.48428 12.6725 4.99441 12.8834C5.50454 13.0943 6.05127 13.2025 6.60327 13.2018H15.0014C15.3956 13.2018 15.7859 13.124 16.15 12.973C16.5141 12.822 16.8449 12.6006 17.1234 12.3216C17.4019 12.0426 17.6226 11.7115 17.7729 11.3471C17.9233 10.9827 18.0003 10.5922 17.9995 10.198V5.39988C17.9975 4.92305 17.8075 4.46626 17.4708 4.12863ZM16.7958 10.2036C16.7958 10.681 16.6061 11.1389 16.2686 11.4764C15.931 11.814 15.4732 12.0036 14.9958 12.0036H6.59765C6.20345 12.0036 5.81313 11.9259 5.44902 11.7749C5.0849 11.6239 4.75414 11.4025 4.47566 11.1235C4.19719 10.8445 3.97646 10.5133 3.82613 10.1489C3.67579 9.78454 3.59878 9.39407 3.59952 8.99988V4.79801H16.1995C16.3591 4.79801 16.5122 4.86142 16.6251 4.97429C16.738 5.08717 16.8014 5.24026 16.8014 5.39988L16.7958 10.2036Z" fill="white"/>
<path d="M13.7981 13.7981C13.3832 13.7981 12.9775 13.9212 12.6325 14.1517C12.2874 14.3823 12.0185 14.71 11.8597 15.0933C11.7009 15.4767 11.6594 15.8986 11.7403 16.3056C11.8213 16.7126 12.0211 17.0864 12.3145 17.3798C12.608 17.6733 12.9818 17.8731 13.3888 17.9541C13.7958 18.035 14.2177 17.9935 14.6011 17.8347C14.9844 17.6759 15.3121 17.4069 15.5427 17.0619C15.7732 16.7169 15.8963 16.3112 15.8963 15.8963C15.8948 15.3403 15.6732 14.8074 15.2801 14.4143C14.8869 14.0211 14.3541 13.7996 13.7981 13.7981ZM13.7981 16.7963C13.6201 16.7963 13.4461 16.7435 13.2981 16.6446C13.1501 16.5457 13.0348 16.4051 12.9666 16.2407C12.8985 16.0762 12.8807 15.8953 12.9154 15.7207C12.9502 15.5461 13.0359 15.3857 13.1617 15.2599C13.2876 15.134 13.448 15.0483 13.6226 15.0135C13.7971 14.9788 13.9781 14.9966 14.1426 15.0648C14.307 15.1329 14.4476 15.2482 14.5465 15.3962C14.6454 15.5442 14.6981 15.7182 14.6981 15.8963C14.6989 16.0149 14.6761 16.1326 14.6313 16.2424C14.5864 16.3522 14.5202 16.4521 14.4365 16.5363C14.3529 16.6205 14.2534 16.6873 14.1439 16.7328C14.0343 16.7784 13.9168 16.8019 13.7981 16.8019V16.7963Z" fill="white"/>
<path d="M6.59813 13.7981C6.18316 13.7981 5.77751 13.9212 5.43247 14.1517C5.08744 14.3823 4.81851 14.71 4.65971 15.0933C4.50091 15.4767 4.45936 15.8986 4.54032 16.3056C4.62127 16.7126 4.8211 17.0864 5.11453 17.3798C5.40796 17.6733 5.78181 17.8731 6.1888 17.9541C6.5958 18.035 7.01766 17.9935 7.40104 17.8347C7.78443 17.6759 8.11211 17.4069 8.34265 17.0619C8.5732 16.7169 8.69625 16.3112 8.69625 15.8963C8.69477 15.3403 8.47324 14.8074 8.08008 14.4143C7.68693 14.0211 7.15413 13.7996 6.59813 13.7981ZM6.59813 16.7963C6.42012 16.7963 6.24612 16.7435 6.09811 16.6446C5.95011 16.5457 5.83475 16.4051 5.76663 16.2407C5.69852 16.0762 5.68069 15.8953 5.71542 15.7207C5.75015 15.5461 5.83586 15.3857 5.96173 15.2599C6.0876 15.134 6.24796 15.0483 6.42254 15.0135C6.59713 14.9788 6.77809 14.9966 6.94254 15.0648C7.10699 15.1329 7.24756 15.2482 7.34645 15.3962C7.44534 15.5442 7.49813 15.7182 7.49813 15.8963C7.49887 16.0149 7.47614 16.1326 7.43124 16.2424C7.38634 16.3522 7.32017 16.4521 7.23652 16.5363C7.15287 16.6205 7.05341 16.6873 6.94385 16.7328C6.83428 16.7784 6.71679 16.8019 6.59813 16.8019V16.7963Z" fill="white"/>
<path d="M10.1984 6.00195C10.0388 6.00195 9.88572 6.06536 9.77285 6.17824C9.65997 6.29111 9.59656 6.4442 9.59656 6.60383V10.2038C9.58846 10.2874 9.59792 10.3717 9.62434 10.4514C9.65075 10.531 9.69355 10.6043 9.74996 10.6665C9.80638 10.7286 9.87517 10.7783 9.95192 10.8123C10.0287 10.8463 10.1117 10.8638 10.1956 10.8638C10.2796 10.8638 10.3626 10.8463 10.4393 10.8123C10.5161 10.7783 10.5849 10.7286 10.6413 10.6665C10.6977 10.6043 10.7405 10.531 10.7669 10.4514C10.7933 10.3717 10.8028 10.2874 10.7947 10.2038V6.60383C10.7947 6.44517 10.7321 6.29293 10.6204 6.18021C10.5087 6.0675 10.3571 6.00344 10.1984 6.00195Z" fill="white"/>
<path d="M6.59785 6.00195C6.43822 6.00195 6.28514 6.06536 6.17226 6.17824C6.05939 6.29111 5.99598 6.4442 5.99598 6.60383V10.2038C5.98787 10.2874 5.99733 10.3717 6.02375 10.4514C6.05017 10.531 6.09296 10.6043 6.14938 10.6665C6.20579 10.7286 6.27458 10.7783 6.35134 10.8123C6.42809 10.8463 6.5111 10.8638 6.59504 10.8638C6.67898 10.8638 6.76199 10.8463 6.83874 10.8123C6.91549 10.7783 6.98429 10.7286 7.0407 10.6665C7.09712 10.6043 7.13991 10.531 7.16633 10.4514C7.19275 10.3717 7.20221 10.2874 7.1941 10.2038V6.60383C7.19411 6.44517 7.13147 6.29293 7.01981 6.18021C6.90815 6.0675 6.7565 6.00344 6.59785 6.00195Z" fill="white"/>
<path d="M13.7981 6.00186C13.6385 6.00186 13.4854 6.06527 13.3725 6.17815C13.2597 6.29102 13.1963 6.44411 13.1963 6.60374V10.2037C13.1882 10.2873 13.1976 10.3716 13.224 10.4513C13.2505 10.531 13.2932 10.6042 13.3497 10.6664C13.4061 10.7285 13.4749 10.7782 13.5516 10.8122C13.6284 10.8462 13.7114 10.8637 13.7953 10.8637C13.8793 10.8637 13.9623 10.8462 14.039 10.8122C14.1158 10.7782 14.1846 10.7285 14.241 10.6664C14.2974 10.6042 14.3402 10.531 14.3666 10.4513C14.393 10.3716 14.4025 10.2873 14.3944 10.2037V6.60374C14.3944 6.44508 14.3318 6.29284 14.2201 6.18012C14.1084 6.06741 13.9568 6.00334 13.7981 6.00186Z" fill="white"/>
</g>
<defs>
<clipPath id="clip0_2_111">
<rect width="18" height="18" fill="white"/>
</clipPath>
</defs>
</svg>
